# xmcd
#
# Track frame offsets:
#	150
#	36001
#	84424
#	129502
#	181126
#	212990
#
# Disc length: 3123 seconds
#
# Revision: 1
# Processed by: cddbd v1.5.2PL0 Copyright (c) Steve Scherf et al.
# Submitted via: audiograbber 1.83.01
#
DISCID=490c3106
DTITLE=Grateful Dead - 76-06-04 Paramount Theatre, Portland OR
DYEAR=1900
DGENRE=
TTITLE0=Cosmic Charlie
TTITLE1=Let It Grow
TTITLE2=Stella Blue
TTITLE3=Dancing In The Streets
TTITLE4=US Blues
TTITLE5=Johnny B Goode
EXTD=
EXTT0=
EXTT1=
EXTT2=
EXTT3=
EXTT4=
EXTT5=
PLAYORDER=
